<?xml version="1.0" encoding="UTF-8" standalone="no"?>
<svg
   xmlns:dc="http://purl.org/dc/elements/1.1/"
   xmlns:cc="http://creativecommons.org/ns#"
   xmlns:rdf="http://www.w3.org/1999/02/22-rdf-syntax-ns#"
   xmlns:svg="http://www.w3.org/2000/svg"
   xmlns="http://www.w3.org/2000/svg"
   xmlns:sodipodi="http://sodipodi.sourceforge.net/DTD/sodipodi-0.dtd"
   xmlns:inkscape="http://www.inkscape.org/namespaces/inkscape"
   width="83"
   height="30"
   version="1.1"
   id="svg13"
   sodipodi:docname="liberapay.svg"
  <metadata
     id="metadata19">
    <rdf:RDF>
      <cc:Work
         rdf:about="">
        <dc:format>image/svg+xml</dc:format>
        <dc:type
           rdf:resource="http://purl.org/dc/dcmitype/StillImage" />
      </cc:Work>
    </rdf:RDF>
  </metadata>
  <defs
     id="defs17" />
  <sodipodi:namedview
     pagecolor="#ffffff"
     bordercolor="#666666"
     borderopacity="1"
     objecttolerance="10"
     gridtolerance="10"
     guidetolerance="10"
     inkscape:pageopacity="0"
     inkscape:pageshadow="2"
     inkscape:window-width="1920"
     inkscape:window-height="999"
     id="namedview15"
     showgrid="false"
     inkscape:zoom="7.3627393"
     inkscape:cx="36.927919"
     inkscape:cy="13.773964"
     inkscape:window-x="0"
     inkscape:window-y="0"
     inkscape:window-maximized="1"
     inkscape:current-layer="svg13" />
  <rect
     id="back"
     fill="#f6c915"
     x="1"
     y=".5"
     width="82"
     height="29"
     rx="4" />
  <svg
     viewBox="0 0 80 80"
     height="16"
     width="16"
     x="7"
     y="7"
     version="1.1"
     id="svg9">
    <g
       transform="translate(-78.37-208.06)"
       fill="#1a171b"
       id="g7">
      <path
         d="m104.28 271.1c-3.571 0-6.373-.466-8.41-1.396-2.037-.93-3.495-2.199-4.375-3.809-.88-1.609-1.308-3.457-1.282-5.544.025-2.086.313-4.311.868-6.675l9.579-40.05 11.69-1.81-10.484 43.44c-.202.905-.314 1.735-.339 2.489-.026.754.113 1.421.415 1.999.302.579.817 1.044 1.546 1.395.729.353 1.747.579 3.055.679l-2.263 9.278"
         id="path3" />
      <path
         d="m146.52 246.14c0 3.671-.604 7.03-1.811 10.07-1.207 3.043-2.879 5.669-5.01 7.881-2.138 2.213-4.702 3.935-7.693 5.167-2.992 1.231-6.248 1.848-9.767 1.848-1.71 0-3.42-.151-5.129-.453l-3.394 13.651h-11.162l12.52-52.19c2.01-.603 4.311-1.143 6.901-1.622 2.589-.477 5.393-.716 8.41-.716 2.815 0 5.242.428 7.278 1.282 2.037.855 3.708 2.024 5.02 3.507 1.307 1.484 2.274 3.219 2.904 5.205.627 1.987.942 4.11.942 6.373m-27.378 15.461c.854.202 1.91.302 3.167.302 1.961 0 3.746-.364 5.355-1.094 1.609-.728 2.979-1.747 4.111-3.055 1.131-1.307 2.01-2.877 2.64-4.714.628-1.835.943-3.858.943-6.071 0-2.161-.479-3.998-1.433-5.506-.956-1.508-2.615-2.263-4.978-2.263-1.61 0-3.118.151-4.525.453l-5.28 21.948"
         id="path5" />
    </g>
  </svg>
  <g
     aria-label="Donate"
     id="text11"
     style="font-weight:700;font-size:14px;font-family:'Helvetica Neue', Helvetica, Arial, sans-serif;text-anchor:middle;fill:#1a171b">
    <path
       d="m 27.390075,20 h 3.99 c 1.554,0 2.534,-0.364 3.234,-1.19 0.798,-0.952 1.232,-2.324 1.232,-3.92 0,-1.582 -0.434,-2.954 -1.232,-3.92 -0.7,-0.826 -1.666,-1.176 -3.234,-1.176 h -3.99 z m 2.1,-1.75 v -6.706 h 1.89 c 1.582,0 2.366,1.106 2.366,3.36 0,2.24 -0.784,3.346 -2.366,3.346 z"
       style="font-weight:700;font-size:14px;font-family:'Helvetica Neue', Helvetica, Arial, sans-serif;text-anchor:middle;fill:#1a171b"
       id="path844" />
    <path
       d="m 40.662034,12.314 c -2.31,0 -3.724,1.526 -3.724,4.004 0,2.492 1.414,4.004 3.738,4.004 2.31,0 3.738,-1.512 3.738,-3.948 0,-2.562 -1.386,-4.06 -3.752,-4.06 z m 0.014,1.582 c 1.078,0 1.778,0.966 1.778,2.45 0,1.414 -0.728,2.394 -1.778,2.394 -1.064,0 -1.778,-0.966 -1.778,-2.422 0,-1.456 0.714,-2.422 1.778,-2.422 z"
       style="font-weight:700;font-size:14px;font-family:'Helvetica Neue', Helvetica, Arial, sans-serif;text-anchor:middle;fill:#1a171b"
       id="path846" />
    <path
       d="M 45.884008,12.44 V 20 h 1.96 v -4.536 c 0,-0.896 0.616,-1.484 1.582,-1.484 0.84,0 1.26,0.462 1.26,1.358 V 20 h 1.96 v -5.068 c 0,-1.68 -0.91,-2.618 -2.534,-2.618 -1.022,0 -1.708,0.364 -2.268,1.218 V 12.44 Z"
       style="font-weight:700;font-size:14px;font-family:'Helvetica Neue', Helvetica, Arial, sans-serif;text-anchor:middle;fill:#1a171b"
       id="path848" />
    <path
       d="m 60.891983,19.762 c -0.336,-0.322 -0.448,-0.546 -0.448,-0.924 v -4.2 c 0,-1.54 -1.05,-2.324 -3.094,-2.324 -2.044,0 -3.108,0.868 -3.234,2.618 h 1.89 c 0.098,-0.784 0.42,-1.036 1.386,-1.036 0.756,0 1.134,0.252 1.134,0.756 0,0.252 -0.126,0.462 -0.336,0.588 -0.266,0.14 -0.266,0.14 -1.232,0.294 l -0.784,0.14 c -1.498,0.252 -2.226,1.022 -2.226,2.38 0,1.358 0.91,2.268 2.296,2.268 0.84,0 1.596,-0.35 2.296,-1.078 0,0.392 0.042,0.532 0.224,0.756 h 2.128 z m -2.366,-2.8 c 0,1.134 -0.56,1.778 -1.554,1.778 -0.658,0 -1.064,-0.35 -1.064,-0.91 0,-0.588 0.308,-0.868 1.12,-1.036 l 0.672,-0.126 c 0.518,-0.098 0.602,-0.126 0.826,-0.238 z"
       style="font-weight:700;font-size:14px;font-family:'Helvetica Neue', Helvetica, Arial, sans-serif;text-anchor:middle;fill:#1a171b"
       id="path850" />
    <path
       d="m 65.511976,12.594 h -1.092 v -2.03 h -1.96 v 2.03 h -0.966 v 1.302 h 0.966 v 4.648 c 0,1.19 0.63,1.778 1.918,1.778 0.448,0 0.77,-0.042 1.134,-0.154 v -1.372 c -0.196,0.028 -0.294,0.042 -0.448,0.042 -0.518,0 -0.644,-0.154 -0.644,-0.826 v -4.116 h 1.092 z"
       style="font-weight:700;font-size:14px;font-family:'Helvetica Neue', Helvetica, Arial, sans-serif;text-anchor:middle;fill:#1a171b"
       id="path852" />
    <path
       d="m 73.239929,16.836 c 0.014,-0.168 0.014,-0.238 0.014,-0.336 0,-0.756 -0.112,-1.456 -0.294,-1.988 -0.504,-1.372 -1.722,-2.198 -3.248,-2.198 -2.17,0 -3.5,1.568 -3.5,4.102 0,2.422 1.316,3.906 3.458,3.906 1.694,0 3.066,-0.952 3.5,-2.45 h -1.932 c -0.238,0.602 -0.784,0.952 -1.498,0.952 -0.56,0 -1.008,-0.238 -1.288,-0.658 -0.182,-0.28 -0.252,-0.616 -0.28,-1.33 z m -5.04,-1.302 c 0.126,-1.162 0.616,-1.722 1.484,-1.722 0.896,0 1.428,0.602 1.526,1.722 z"
       style="font-weight:700;font-size:14px;font-family:'Helvetica Neue', Helvetica, Arial, sans-serif;text-anchor:middle;fill:#1a171b"
       id="path854" />
  </g>
</svg>
