<?xml version="1.0" encoding="utf-8"?>
<!-- Generator: Adobe Illustrator 24.0.2, SVG Export Plug-In . SVG Version: 6.00 Build 0)  -->
<svg version="1.1" id="Слой_1" xmlns="http://www.w3.org/2000/svg" xmlns:xlink="http://www.w3.org/1999/xlink" x="0px" y="0px"
	 viewBox="0 0 64 64" style="enable-background:new 0 0 64 64;" xml:space="preserve">
<style type="text/css">
	.st0{fill:#FFFFFF;}
</style>
<g>
	<path class="st0" d="M32,0C14.35,0,0,14.35,0,32c0,17.64,14.35,32,32,32c17.64,0,32-14.36,32-32C64,14.35,49.64,0,32,0z M32,62
		C15.46,62,2,48.54,2,32S15.46,2,32,2s30,13.46,30,30S48.54,62,32,62z"/>
	<path class="st0" d="M48.53,33.07h-17.6v-17.6c0-0.55-0.45-1-1-1s-1,0.45-1,1v18.6c0,0.55,0.45,1,1,1h18.6c0.55,0,1-0.45,1-1
		S49.09,33.07,48.53,33.07z"/>
</g>
</svg>
