<?xml version="1.0" encoding="utf-8"?>
<!-- Generator: Adobe Illustrator 24.0.2, SVG Export Plug-In . SVG Version: 6.00 Build 0)  -->
<svg version="1.1" id="Слой_1" xmlns="http://www.w3.org/2000/svg" xmlns:xlink="http://www.w3.org/1999/xlink" x="0px" y="0px"
	 viewBox="0 0 64 64" style="enable-background:new 0 0 64 64;" xml:space="preserve">
<style type="text/css">
	.st0{fill:#FFFFFF;}
</style>
<g>
	<path class="st0" d="M32,0C14.36,0,0,14.36,0,32s14.36,32,32,32s32-14.36,32-32S49.64,0,32,0z M32,61.33
		C15.83,61.33,2.67,48.17,2.67,32S15.83,2.67,32,2.67S61.33,15.83,61.33,32S48.17,61.33,32,61.33z"/>
	<path class="st0" d="M48.36,32.71H31.29V15.64c0-0.74-0.6-1.33-1.33-1.33s-1.33,0.6-1.33,1.33v18.4c0,0.74,0.6,1.33,1.33,1.33h18.4
		c0.74,0,1.33-0.6,1.33-1.33C49.69,33.31,49.09,32.71,48.36,32.71z"/>
</g>
</svg>
