<?xml version="1.0" encoding="utf-8"?>
<!-- Generator: Adobe Illustrator 24.0.2, SVG Export Plug-In . SVG Version: 6.00 Build 0)  -->
<svg version="1.1" id="Слой_1" xmlns="http://www.w3.org/2000/svg" xmlns:xlink="http://www.w3.org/1999/xlink" x="0px" y="0px"
	 viewBox="0 0 64 64" style="enable-background:new 0 0 64 64;" xml:space="preserve">
<style type="text/css">
	.st0{fill:#FFFFFF;}
</style>
<path class="st0" d="M63.98,30.97C63.45,13.91,49.11,0.01,32.02,0C32.02,0,32.01,0,32,0C23.16,0,14.64,3.71,8.6,10.17
	C2.48,16.73-0.55,25.3,0.08,34.29c1.06,15.17,12.73,27.55,27.77,29.45c1.38,0.17,2.76,0.26,4.13,0.26c6.94,0,13.65-2.21,19.22-6.4
	c0.59-0.44,0.71-1.28,0.27-1.87c-0.44-0.59-1.28-0.71-1.87-0.27c-6.12,4.6-13.73,6.6-21.42,5.63C14.41,59.36,3.71,48.01,2.74,34.11
	c-0.57-8.25,2.2-16.1,7.81-22.12C16.08,6.06,23.9,2.67,32,2.67c0.01,0,0.01,0,0.02,0c15.66,0.01,28.81,12.75,29.3,28.39
	c0.07,2.28-0.12,4.56-0.56,6.77c-0.84,4.14-4.52,7.15-8.76,7.15c-2.59,0-5.04-1.12-6.74-3.08s-2.46-4.54-2.09-7.11l2.42-16.92
	c0.1-0.73-0.4-1.4-1.13-1.51c-0.73-0.1-1.4,0.4-1.51,1.13l-0.73,5.1c-0.39-0.68-0.84-1.34-1.37-1.94c-2.37-2.73-5.8-4.3-9.42-4.3
	c-6.16,0-11.47,4.6-12.34,10.7l-0.91,6.36c-0.51,3.58,0.55,7.2,2.92,9.93c2.37,2.73,5.8,4.3,9.42,4.3c4.7,0,8.89-2.68,11.01-6.65
	c0.45,0.95,1.01,1.85,1.71,2.66c2.2,2.54,5.39,3.99,8.75,3.99c5.5,0,10.28-3.91,11.37-9.29C63.86,35.94,64.06,33.45,63.98,30.97z
	 M30.52,44.98c-2.84,0-5.54-1.23-7.4-3.38c-1.86-2.15-2.7-4.99-2.3-7.81l0.91-6.36c0.69-4.8,4.86-8.41,9.7-8.41
	c2.84,0,5.54,1.23,7.4,3.38s2.7,4.99,2.3,7.8l-0.91,6.36C39.54,41.36,35.37,44.98,30.52,44.98z"/>
</svg>
