<?xml version="1.0" encoding="utf-8"?>
<!-- Generator: Adobe Illustrator 24.0.2, SVG Export Plug-In . SVG Version: 6.00 Build 0)  -->
<svg version="1.1" id="Слой_1" xmlns="http://www.w3.org/2000/svg" xmlns:xlink="http://www.w3.org/1999/xlink" x="0px" y="0px"
	 viewBox="0 0 64 64" style="enable-background:new 0 0 64 64;" xml:space="preserve">
<style type="text/css">
	.st0{fill:#FFFFFF;}
</style>
<path class="st0" d="M63.98,30.97C63.45,13.91,49.11,0.01,32.02,0C32.02,0,32.01,0,32,0C23.16,0,14.64,3.71,8.6,10.17
	C2.48,16.73-0.55,25.3,0.08,34.29c1.06,15.17,12.73,27.55,27.77,29.45c1.38,0.17,2.76,0.26,4.14,0.26c6.94,0,13.65-2.21,19.22-6.4
	c0.44-0.33,0.53-0.96,0.2-1.4c-0.33-0.44-0.96-0.53-1.4-0.2c-6.26,4.7-14.03,6.75-21.91,5.75C14.01,59.98,3.07,48.37,2.08,34.15
	c-0.59-8.44,2.25-16.47,7.99-22.62C15.72,5.48,23.72,2,32,2c0.01,0,0.01,0,0.02,0c16.02,0.01,29.46,13.04,29.96,29.03
	c0.07,2.33-0.12,4.66-0.58,6.92c-0.88,4.35-4.74,7.51-9.19,7.51c-2.72,0-5.29-1.18-7.07-3.23c-1.78-2.05-2.58-4.77-2.2-7.46
	l2.44-17.1c0.08-0.55-0.3-1.05-0.85-1.13c-0.55-0.07-1.05,0.3-1.13,0.85l-0.89,6.23c-0.48-1.02-1.08-1.99-1.84-2.87
	c-2.33-2.68-5.7-4.22-9.26-4.22c-6.06,0-11.27,4.52-12.13,10.52l-0.92,6.43c-0.5,3.52,0.54,7.08,2.87,9.76s5.7,4.22,9.26,4.22
	c4.87,0,9.19-2.93,11.15-7.19c0.47,1.18,1.13,2.29,1.98,3.27c2.16,2.49,5.29,3.92,8.59,3.92c5.4,0,10.09-3.83,11.15-9.11
	C63.86,35.94,64.06,33.46,63.98,30.97z M30.51,45.47c-2.97,0-5.8-1.29-7.74-3.54c-1.95-2.25-2.83-5.22-2.4-8.17l0.92-6.43
	c0.72-5.02,5.08-8.8,10.15-8.8c2.97,0,5.8,1.29,7.75,3.53c1.95,2.25,2.83,5.22,2.4,8.17l-0.92,6.43
	C39.94,41.68,35.58,45.47,30.51,45.47z"/>
</svg>
