<?xml version="1.0" encoding="utf-8"?>
<!-- Generator: Adobe Illustrator 24.0.2, SVG Export Plug-In . SVG Version: 6.00 Build 0)  -->
<svg version="1.1" id="Слой_1" xmlns="http://www.w3.org/2000/svg" xmlns:xlink="http://www.w3.org/1999/xlink" x="0px" y="0px"
	 viewBox="0 0 64 64" style="enable-background:new 0 0 64 64;" xml:space="preserve">
<style type="text/css">
	.st0{fill:#FFFFFF;}
</style>
<g>
	<path class="st0" d="M32,0C14.36,0,0,14.36,0,32s14.36,32,32,32s32-14.36,32-32S49.64,0,32,0z M32,61.33
		C15.83,61.33,2.67,48.17,2.67,32S15.83,2.67,32,2.67S61.33,15.83,61.33,32S48.17,61.33,32,61.33z"/>
	<path class="st0" d="M43.85,41.04c-0.65-0.33-1.45-0.07-1.79,0.58c-0.11,0.22-2.85,5.4-10.05,5.4c-7.21,0-9.94-5.18-10.05-5.4
		c-0.33-0.66-1.13-0.92-1.79-0.6c-0.66,0.33-0.93,1.13-0.6,1.79C19.7,43.1,23.1,49.69,32,49.69s12.3-6.59,12.44-6.87
		C44.77,42.16,44.5,41.37,43.85,41.04z"/>
	<path class="st0" d="M25.16,27.91c0-1.86-1.51-3.38-3.38-3.38c-1.86,0-3.38,1.51-3.38,3.38c0,1.86,1.52,3.38,3.38,3.38
		C23.64,31.29,25.16,29.77,25.16,27.91z"/>
	<path class="st0" d="M42.22,24.53c-1.86,0-3.38,1.51-3.38,3.38c0,1.86,1.52,3.38,3.38,3.38s3.38-1.52,3.38-3.38
		C45.6,26.05,44.08,24.53,42.22,24.53z"/>
</g>
</svg>
