<?xml version="1.0" encoding="utf-8"?>
<!-- Generator: Adobe Illustrator 24.0.2, SVG Export Plug-In . SVG Version: 6.00 Build 0)  -->
<svg version="1.1" id="Слой_1" xmlns="http://www.w3.org/2000/svg" xmlns:xlink="http://www.w3.org/1999/xlink" x="0px" y="0px"
	 viewBox="0 0 64 64" style="enable-background:new 0 0 64 64;" xml:space="preserve">
<style type="text/css">
	.st0{fill:#FFFFFF;}
</style>
<g>
	<path class="st0" d="M32,0C14.35,0,0,14.35,0,32c0,17.64,14.35,32,32,32c17.64,0,32-14.36,32-32C64,14.35,49.64,0,32,0z M32,62
		C15.46,62,2,48.54,2,32S15.46,2,32,2s30,13.46,30,30S48.54,62,32,62z"/>
	<path class="st0" d="M43.82,41.44c-0.49-0.25-1.09-0.05-1.34,0.44c-0.12,0.23-2.96,5.65-10.47,5.65s-10.36-5.42-10.47-5.65
		c-0.25-0.49-0.85-0.69-1.34-0.45c-0.49,0.25-0.69,0.85-0.45,1.34c0.14,0.28,3.48,6.75,12.26,6.75c8.78,0,12.12-6.48,12.26-6.75
		C44.51,42.29,44.31,41.69,43.82,41.44z"/>
	<path class="st0" d="M24.73,27.87c0-1.69-1.38-3.07-3.07-3.07s-3.07,1.38-3.07,3.07s1.38,3.07,3.07,3.07S24.73,29.56,24.73,27.87z
		 M20.6,27.87c0-0.59,0.48-1.07,1.07-1.07c0.59,0,1.07,0.48,1.07,1.07c0,0.59-0.48,1.07-1.07,1.07
		C21.08,28.93,20.6,28.45,20.6,27.87z"/>
	<path class="st0" d="M42.33,24.8c-1.69,0-3.07,1.38-3.07,3.07s1.38,3.07,3.07,3.07c1.69,0,3.07-1.38,3.07-3.07
		S44.02,24.8,42.33,24.8z M42.33,28.93c-0.59,0-1.07-0.48-1.07-1.07c0-0.59,0.48-1.07,1.07-1.07c0.59,0,1.07,0.48,1.07,1.07
		C43.4,28.45,42.92,28.93,42.33,28.93z"/>
</g>
</svg>
