<?xml version="1.0" encoding="utf-8"?>
<!-- Generator: Adobe Illustrator 24.0.2, SVG Export Plug-In . SVG Version: 6.00 Build 0)  -->
<svg version="1.1" id="Слой_1" xmlns="http://www.w3.org/2000/svg" xmlns:xlink="http://www.w3.org/1999/xlink" x="0px" y="0px"
	 viewBox="0 0 64 64" style="enable-background:new 0 0 64 64;" xml:space="preserve">
<style type="text/css">
	.st0{fill:#FFFFFF;}
</style>
<g>
	<path class="st0" d="M34.04,40.89h-4.09c-0.74,0-1.33,0.6-1.33,1.33s0.6,1.33,1.33,1.33h4.09c0.74,0,1.33-0.6,1.33-1.33
		S34.78,40.89,34.04,40.89z"/>
	<path class="st0" d="M17.69,30.67c-2.99,0-5.42,2.43-5.42,5.42c0,0.74,0.6,1.33,1.33,1.33c0.74,0,1.33-0.6,1.33-1.33
		c0-1.52,1.24-2.76,2.76-2.76c1.52,0,2.76,1.24,2.76,2.76c0,0.74,0.6,1.33,1.33,1.33c0.74,0,1.33-0.6,1.33-1.33
		C23.11,33.1,20.68,30.67,17.69,30.67z"/>
	<path class="st0" d="M46.31,30.67c-2.99,0-5.42,2.43-5.42,5.42c0,0.74,0.6,1.33,1.33,1.33c0.74,0,1.33-0.6,1.33-1.33
		c0-1.52,1.24-2.76,2.76-2.76c1.52,0,2.76,1.24,2.76,2.76c0,0.74,0.6,1.33,1.33,1.33c0.74,0,1.33-0.6,1.33-1.33
		C51.73,33.1,49.3,30.67,46.31,30.67z"/>
	<path class="st0" d="M64,1.33C64,0.6,63.4,0,62.67,0c-8.56,0-16.84,1.7-24.64,5.04C35.9,4.42,33.86,4.09,32,4.09
		c-1.86,0-3.9,0.33-6.03,0.95C18.18,1.7,9.89,0,1.33,0C0.6,0,0,0.6,0,1.33v32.71c0,4.51,1.08,8.78,2.99,12.62l-1.92,0.38
		c-0.72,0.14-1.19,0.85-1.05,1.57c0.13,0.63,0.68,1.07,1.31,1.07c0.09,0,0.17-0.01,0.26-0.03l2.76-0.55
		c1.24,1.99,2.72,3.83,4.4,5.49l-2.95,1.59C5.16,56.55,4.92,57.35,5.27,58c0.24,0.45,0.7,0.7,1.17,0.7c0.21,0,0.43-0.05,0.63-0.16
		l3.77-2.04C16.5,61.16,23.9,64,32,64c8.1,0,15.5-2.84,21.15-7.5l3.77,2.04c0.2,0.11,0.42,0.16,0.63,0.16c0.47,0,0.93-0.25,1.17-0.7
		c0.35-0.65,0.11-1.46-0.54-1.81l-2.95-1.59c1.68-1.66,3.16-3.5,4.4-5.49l2.76,0.55c0.09,0.02,0.18,0.03,0.26,0.03
		c0.62,0,1.18-0.44,1.31-1.07c0.14-0.72-0.32-1.42-1.05-1.57l-1.92-0.38C62.92,42.83,64,38.55,64,34.04V1.33z M2.67,2.68
		C9.4,2.83,15.96,4.08,22.2,6.41C14.6,9.66,6.67,16.07,2.67,23.81V2.68z M58.29,46.12L52.71,45c-0.73-0.15-1.43,0.32-1.57,1.05
		c-0.14,0.72,0.32,1.42,1.05,1.57l4.65,0.93c-1.16,1.71-2.51,3.3-4.04,4.72l-3.77-2.04c-0.65-0.35-1.46-0.11-1.81,0.54
		c-0.35,0.65-0.11,1.46,0.54,1.81l2.85,1.54C45.54,59,39.06,61.33,32,61.33c-7.06,0-13.54-2.33-18.61-6.21l2.85-1.55
		c0.65-0.35,0.89-1.16,0.54-1.81c-0.35-0.65-1.16-0.89-1.81-0.54l-3.77,2.04c-1.53-1.43-2.88-3.01-4.04-4.72l4.65-0.93
		c0.72-0.14,1.19-0.85,1.05-1.57c-0.14-0.72-0.84-1.2-1.57-1.05l-5.59,1.12c-1.94-3.64-3.04-7.74-3.04-12.08
		C2.67,18.55,22.22,6.76,32,6.76c9.78,0,29.33,11.8,29.33,27.29C61.33,38.38,60.24,42.48,58.29,46.12z M41.8,6.41
		c6.25-2.32,12.8-3.58,19.54-3.72v21.12C57.33,16.07,49.4,9.66,41.8,6.41z"/>
</g>
</svg>
