<?xml version="1.0" encoding="utf-8"?>
<!-- Generator: Adobe Illustrator 24.0.2, SVG Export Plug-In . SVG Version: 6.00 Build 0)  -->
<svg version="1.1" id="Слой_1" xmlns="http://www.w3.org/2000/svg" xmlns:xlink="http://www.w3.org/1999/xlink" x="0px" y="0px"
	 viewBox="0 0 64 64" style="enable-background:new 0 0 64 64;" xml:space="preserve">
<style type="text/css">
	.st0{fill:#FFFFFF;}
</style>
<g>
	<path class="st0" d="M34.07,41.33h-4.13c-0.55,0-1,0.45-1,1s0.45,1,1,1h4.13c0.55,0,1-0.45,1-1S34.62,41.33,34.07,41.33z"/>
	<path class="st0" d="M17.53,31c-2.83,0-5.13,2.3-5.13,5.13c0,0.55,0.45,1,1,1s1-0.45,1-1c0-1.73,1.41-3.13,3.13-3.13
		s3.13,1.41,3.13,3.13c0,0.55,0.45,1,1,1s1-0.45,1-1C22.67,33.3,20.36,31,17.53,31z"/>
	<path class="st0" d="M46.47,31c-2.83,0-5.13,2.3-5.13,5.13c0,0.55,0.45,1,1,1s1-0.45,1-1c0-1.73,1.41-3.13,3.13-3.13
		s3.13,1.41,3.13,3.13c0,0.55,0.45,1,1,1s1-0.45,1-1C51.6,33.3,49.3,31,46.47,31z"/>
	<path class="st0" d="M64,1c0-0.55-0.45-1-1-1c-8.64,0-17.01,1.73-24.88,5.11C35.96,4.47,33.88,4.13,32,4.13
		c-1.88,0-3.96,0.34-6.12,0.98C18.01,1.73,9.64,0,1,0C0.45,0,0,0.45,0,1v33.07c0,4.66,1.15,9.07,3.18,13.01L0.8,47.55
		c-0.54,0.11-0.89,0.63-0.78,1.18c0.09,0.48,0.51,0.8,0.98,0.8c0.06,0,0.13-0.01,0.2-0.02l3.03-0.61c1.35,2.2,2.98,4.22,4.85,6.02
		l-3.39,1.84c-0.49,0.26-0.67,0.87-0.4,1.36c0.18,0.33,0.52,0.52,0.88,0.52c0.16,0,0.32-0.04,0.48-0.12l4.02-2.17
		C16.33,61.1,23.81,64,32,64c8.19,0,15.67-2.9,21.34-7.65l4.02,2.17c0.15,0.08,0.31,0.12,0.48,0.12c0.36,0,0.7-0.19,0.88-0.52
		c0.26-0.49,0.08-1.09-0.4-1.36l-3.39-1.84c1.88-1.8,3.51-3.82,4.85-6.02l3.03,0.61c0.07,0.01,0.13,0.02,0.2,0.02
		c0.47,0,0.88-0.33,0.98-0.8c0.11-0.54-0.24-1.07-0.78-1.18l-2.38-0.48C62.85,43.14,64,38.73,64,34.07V1z M2,2.01
		c7.27,0.12,14.32,1.5,21.03,4.1C14.73,9.42,5.87,16.59,2,25.22V2.01z M58.76,46.67l-5.9-1.18c-0.54-0.11-1.07,0.24-1.18,0.78
		c-0.11,0.54,0.24,1.07,0.78,1.18l5.21,1.04c-1.29,1.99-2.85,3.81-4.61,5.44l-4.03-2.18c-0.48-0.26-1.09-0.08-1.36,0.4
		c-0.26,0.49-0.08,1.09,0.4,1.36l3.35,1.81C46.2,59.48,39.41,62,32,62c-7.41,0-14.2-2.52-19.44-6.68l3.35-1.81
		c0.49-0.26,0.67-0.87,0.4-1.36c-0.26-0.49-0.87-0.67-1.36-0.4l-4.03,2.18c-1.77-1.62-3.32-3.45-4.61-5.44l5.21-1.04
		c0.54-0.11,0.89-0.63,0.78-1.18c-0.11-0.54-0.63-0.9-1.18-0.78l-5.9,1.18C3.17,42.88,2,38.6,2,34.07C2,18.21,21.99,6.13,32,6.13
		s30,12.08,30,27.93C62,38.6,60.83,42.88,58.76,46.67z M40.97,6.11c6.71-2.6,13.76-3.98,21.03-4.1v23.21
		C58.13,16.59,49.27,9.42,40.97,6.11z"/>
</g>
</svg>
