<?xml version="1.0" encoding="utf-8"?>
<!-- Generator: Adobe Illustrator 24.0.2, SVG Export Plug-In . SVG Version: 6.00 Build 0)  -->
<svg version="1.1" id="Слой_1" xmlns="http://www.w3.org/2000/svg" xmlns:xlink="http://www.w3.org/1999/xlink" x="0px" y="0px"
	 viewBox="0 0 64 64" style="enable-background:new 0 0 64 64;" xml:space="preserve">
<style type="text/css">
	.st0{fill:#FFFFFF;}
</style>
<path class="st0" d="M62.67,28.62h-2.86c-0.59-4.19-3.91-7.51-8.1-8.09c0.02-0.27,0.03-0.53,0.03-0.8c0-1.26-0.21-2.47-0.58-3.61
	l12.51-13.9c0.49-0.55,0.45-1.39-0.1-1.88c-0.55-0.49-1.39-0.45-1.88,0.1L49.91,13.52c-1.37-2.14-3.43-3.8-5.86-4.66l3.46-6.93
	c0.33-0.66,0.06-1.46-0.6-1.79c-0.66-0.33-1.46-0.06-1.79,0.6l-3.75,7.5c-0.39-0.04-0.79-0.06-1.19-0.06c-3.83,0-7.37,1.91-9.5,5
	c-1.77-1.88-4.21-2.95-6.86-2.95c-5.24,0-9.51,4.27-9.51,9.51c0,0.25,0.01,0.49,0.04,0.75c-0.25-0.02-0.5-0.03-0.75-0.03
	c-4.79,0-8.75,3.56-9.41,8.18H1.33C0.6,28.62,0,29.22,0,29.96v13.87c0,6.62,5.38,12,12,12h4.36v5.51c0,1.47,1.2,2.67,2.67,2.67
	h25.96c1.47,0,2.67-1.2,2.67-2.67v-5.51H52c6.62,0,12-5.38,12-12V29.96C64,29.22,63.4,28.62,62.67,28.62z M13.6,23.11
	c0.63,0,1.31,0.12,2.06,0.36c0.47,0.15,0.99,0.02,1.35-0.33c0.35-0.35,0.48-0.87,0.33-1.35c-0.24-0.77-0.36-1.42-0.36-2.06
	c0-3.77,3.07-6.84,6.84-6.84c2.42,0,4.62,1.27,5.87,3.39c0.25,0.43,0.73,0.68,1.23,0.65c0.5-0.03,0.94-0.33,1.14-0.79
	c1.41-3.18,4.54-5.24,8-5.29L34.9,21.18c-0.33,0.66-0.06,1.46,0.6,1.79c0.19,0.1,0.39,0.14,0.6,0.14c0.49,0,0.96-0.27,1.19-0.74
	l5.56-11.12c2.25,0.71,4.11,2.29,5.2,4.34l-5.14,5.71c-0.49,0.55-0.45,1.39,0.1,1.88c0.26,0.23,0.57,0.34,0.89,0.34
	c0.36,0,0.73-0.15,0.99-0.44l4.1-4.55c0.05,0.39,0.09,0.79,0.09,1.2c0,0.61-0.06,1.21-0.18,1.8c-0.08,0.4,0.02,0.81,0.28,1.13
	c0.26,0.31,0.64,0.5,1.06,0.48c0.09,0,0.17-0.01,0.17-0.02c3.32,0,6.09,2.37,6.71,5.51H6.89C7.51,25.49,10.28,23.11,13.6,23.11z
	 M44.98,61.33H19.02v-5.51h25.96L44.98,61.33z M61.33,43.82c0,5.15-4.19,9.33-9.33,9.33h-5.69H17.69H12c-5.15,0-9.33-4.19-9.33-9.33
	V31.29h58.67V43.82z"/>
</svg>
