<?xml version="1.0" encoding="utf-8"?>
<!-- Generator: Adobe Illustrator 24.0.2, SVG Export Plug-In . SVG Version: 6.00 Build 0)  -->
<svg version="1.1" id="Слой_1" xmlns="http://www.w3.org/2000/svg" xmlns:xlink="http://www.w3.org/1999/xlink" x="0px" y="0px"
	 viewBox="0 0 64 64" style="enable-background:new 0 0 64 64;" xml:space="preserve">
<style type="text/css">
	.st0{fill:#FFFFFF;}
</style>
<path class="st0" d="M63,28.93h-3.19c-0.47-4.33-3.92-7.78-8.26-8.22c0.04-0.37,0.05-0.74,0.05-1.11c0-1.31-0.23-2.56-0.64-3.72
	L63.74,1.67c0.37-0.41,0.34-1.04-0.07-1.41c-0.41-0.37-1.04-0.34-1.41,0.07L50.05,13.9c-1.41-2.4-3.66-4.25-6.36-5.1l3.67-7.35
	c0.25-0.49,0.05-1.09-0.45-1.34s-1.09-0.05-1.34,0.45l-3.9,7.81c-0.46-0.06-0.93-0.1-1.4-0.1c-3.91,0-7.5,2.02-9.56,5.27
	c-1.74-2.03-4.25-3.2-6.97-3.2c-5.11,0-9.27,4.16-9.27,9.27c0,0.38,0.03,0.76,0.08,1.15c-0.39-0.06-0.77-0.08-1.15-0.08
	c-4.77,0-8.71,3.63-9.21,8.27H1c-0.55,0-1,0.45-1,1v16.8c0,4.96,4.04,9,9,9h7.53V62c0,1.1,0.9,2,2,2h26.93c1.1,0,2-0.9,2-2v-6.27H55
	c4.96,0,9-4.04,9-9v-16.8C64,29.38,63.55,28.93,63,28.93z M13.4,22.67c0.68,0,1.38,0.12,2.19,0.38c0.36,0.11,0.75,0.02,1.01-0.25
	c0.26-0.26,0.36-0.65,0.25-1.01c-0.25-0.8-0.38-1.51-0.38-2.19c0-4.01,3.26-7.27,7.27-7.27c2.57,0,4.91,1.34,6.23,3.6
	c0.19,0.32,0.55,0.51,0.92,0.49c0.37-0.02,0.7-0.25,0.86-0.59c1.5-3.38,4.84-5.56,8.52-5.56c0.15,0,0.29,0.02,0.44,0.02l-5.47,10.93
	c-0.25,0.49-0.05,1.09,0.45,1.34c0.14,0.07,0.3,0.11,0.45,0.11c0.37,0,0.72-0.2,0.9-0.55l5.75-11.49c2.57,0.72,4.69,2.51,5.85,4.86
	l-5.35,5.95c-0.37,0.41-0.34,1.04,0.07,1.41c0.19,0.17,0.43,0.26,0.67,0.26c0.27,0,0.55-0.11,0.74-0.33l4.62-5.14
	c0.14,0.64,0.22,1.3,0.22,1.98c0,0.63-0.06,1.27-0.19,1.89c-0.06,0.3,0.02,0.61,0.21,0.84c0.2,0.23,0.45,0.37,0.79,0.36
	c0.08,0,0.15-0.01,0.18-0.02c3.67,0,6.7,2.73,7.19,6.27H6.21C6.7,25.4,9.73,22.67,13.4,22.67z M45.47,62H18.53v-6.27h26.93L45.47,62
	z M62,46.73c0,3.86-3.14,7-7,7h-8.53H17.53H9c-3.86,0-7-3.14-7-7v-15.8h60V46.73z"/>
</svg>
