<?xml version="1.0" encoding="utf-8"?>
<!-- Generator: Adobe Illustrator 24.0.2, SVG Export Plug-In . SVG Version: 6.00 Build 0)  -->
<svg version="1.1" id="Слой_1" xmlns="http://www.w3.org/2000/svg" xmlns:xlink="http://www.w3.org/1999/xlink" x="0px" y="0px"
	 viewBox="0 0 64 64" style="enable-background:new 0 0 64 64;" xml:space="preserve">
<style type="text/css">
	.st0{fill:#FFFFFF;}
</style>
<path class="st0" d="M55.49,53.7C60.77,47.99,64,40.37,64,32c0-8.37-3.23-15.99-8.51-21.7c-0.03-0.04-0.04-0.08-0.08-0.11
	c-0.02-0.02-0.04-0.02-0.06-0.04C49.51,3.91,41.2,0,32,0C22.8,0,14.49,3.91,8.65,10.15c-0.02,0.02-0.04,0.02-0.06,0.04
	c-0.03,0.03-0.05,0.07-0.08,0.11C3.23,16.01,0,23.63,0,32c0,8.37,3.23,15.99,8.51,21.7c0.03,0.03,0.04,0.08,0.08,0.11
	c0.02,0.02,0.04,0.02,0.06,0.04C14.49,60.09,22.8,64,32,64c9.2,0,17.51-3.91,23.35-10.15c0.02-0.02,0.04-0.02,0.06-0.04
	C55.45,53.78,55.46,53.74,55.49,53.7z M61.97,31H47.49c0.23-6.85,2.76-13.37,7.23-18.55C59.05,17.47,61.74,23.92,61.97,31z
	 M61.97,33c-0.23,7.08-2.93,13.54-7.25,18.55c-4.47-5.19-7.01-11.7-7.23-18.55H61.97z M53.36,10.96
	c-4.88,5.58-7.64,12.62-7.87,20.04H33V2.03C40.96,2.29,48.14,5.66,53.36,10.96z M31,2.03V31H18.51c-0.23-7.41-3-14.46-7.87-20.04
	C15.86,5.66,23.04,2.29,31,2.03z M2.03,33h14.48c-0.23,6.85-2.77,13.36-7.23,18.55C4.95,46.54,2.26,40.08,2.03,33z M2.03,31
	c0.23-7.08,2.93-13.54,7.25-18.55c4.47,5.19,7.01,11.7,7.23,18.55H2.03z M10.64,53.04c4.88-5.58,7.64-12.63,7.87-20.04H31v28.97
	C23.04,61.71,15.86,58.34,10.64,53.04z M33,61.97V33h12.49c0.23,7.41,3,14.45,7.87,20.04C48.14,58.34,40.96,61.71,33,61.97z"/>
</svg>
