<?xml version="1.0" encoding="utf-8"?>
<!-- Generator: Adobe Illustrator 24.0.2, SVG Export Plug-In . SVG Version: 6.00 Build 0)  -->
<svg version="1.1" id="Слой_1" xmlns="http://www.w3.org/2000/svg" xmlns:xlink="http://www.w3.org/1999/xlink" x="0px" y="0px"
	 viewBox="0 0 64 64" style="enable-background:new 0 0 64 64;" xml:space="preserve">
<style type="text/css">
	.st0{fill:#FFFFFF;}
</style>
<path class="st0" d="M55.47,53.72C60.76,48.01,64,40.38,64,32c0-8.38-3.24-16.01-8.53-21.72c-0.03-0.03-0.04-0.07-0.08-0.11
	c-0.02-0.02-0.04-0.02-0.06-0.04C49.49,3.9,41.2,0,32,0C22.8,0,14.51,3.9,8.67,10.14c-0.02,0.02-0.04,0.02-0.06,0.04
	c-0.03,0.03-0.05,0.07-0.08,0.11C3.24,15.99,0,23.62,0,32s3.24,16.01,8.53,21.72c0.03,0.03,0.04,0.08,0.08,0.11
	c0.02,0.02,0.04,0.02,0.06,0.04C14.51,60.1,22.81,64,32,64c9.2,0,17.49-3.9,23.33-10.14c0.02-0.02,0.04-0.02,0.06-0.04
	C55.43,53.8,55.44,53.75,55.47,53.72z M2.7,33.33h13.59C16,39.76,13.63,45.86,9.5,50.8C5.51,46.02,3,39.96,2.7,33.33z M9.5,13.2
	c4.13,4.93,6.5,11.03,6.79,17.46H2.7C3,24.04,5.51,17.98,9.5,13.2z M61.3,30.67H47.71C48,24.24,50.37,18.14,54.5,13.2
	C58.49,17.98,61,24.04,61.3,30.67z M45.04,30.67H33.33V2.7c7.53,0.34,14.34,3.53,19.35,8.52C48.01,16.68,45.34,23.49,45.04,30.67z
	 M30.67,30.67H18.96c-0.3-7.18-2.97-13.99-7.64-19.44c5.01-4.99,11.82-8.18,19.35-8.52V30.67z M18.96,33.33h11.71V61.3
	c-7.53-0.34-14.34-3.53-19.35-8.52C15.99,47.32,18.66,40.51,18.96,33.33z M33.33,33.33h11.71c0.3,7.18,2.97,13.99,7.64,19.44
	c-5.01,4.99-11.82,8.18-19.35,8.52V33.33z M47.71,33.33H61.3c-0.3,6.63-2.8,12.69-6.8,17.46C50.37,45.86,48,39.76,47.71,33.33z"/>
</svg>
