<?xml version="1.0" encoding="utf-8"?>
<!-- Generator: Adobe Illustrator 24.0.2, SVG Export Plug-In . SVG Version: 6.00 Build 0)  -->
<svg version="1.1" id="Слой_1" xmlns="http://www.w3.org/2000/svg" xmlns:xlink="http://www.w3.org/1999/xlink" x="0px" y="0px"
	 viewBox="0 0 64 64" style="enable-background:new 0 0 64 64;" xml:space="preserve">
<style type="text/css">
	.st0{fill:#FFFFFF;}
</style>
<path class="st0" d="M60.29,21.63l-2.68-0.89L52.55,3.86C51.86,1.55,49.77,0,47.36,0H16.64c-2.41,0-4.5,1.55-5.19,3.86L6.39,20.73
	l-2.68,0.89C1.49,22.36,0,24.43,0,26.77v17.5c0,1.71,0.81,3.21,2.04,4.21v12.86c0,1.47,1.2,2.67,2.67,2.67h7.56
	c1.47,0,2.67-1.2,2.67-2.67v-3.47h34.13v3.47c0,1.47,1.2,2.67,2.67,2.67h7.56c1.47,0,2.67-1.2,2.67-2.67V48.47
	c1.24-0.99,2.04-2.5,2.04-4.21v-17.5C64,24.43,62.51,22.36,60.29,21.63z M14,4.63c0.35-1.17,1.41-1.96,2.64-1.96h30.72
	c1.23,0,2.29,0.79,2.64,1.96l4.74,15.81H9.26L14,4.63z M4.55,24.15l3.13-1.04h48.63l3.13,1.04c1.13,0.38,1.88,1.43,1.88,2.61v3.9
	h-8.89c-0.74,0-1.33,0.6-1.33,1.33s0.6,1.33,1.33,1.33h8.89v10.93c0,1.52-1.24,2.76-2.76,2.76H50.4h-4.8V32
	c0-0.74-0.6-1.33-1.33-1.33H19.73c-0.74,0-1.33,0.6-1.33,1.33v15.02h-4.8H5.42c-1.52,0-2.76-1.24-2.76-2.76V33.33h8.89
	c0.74,0,1.33-0.6,1.33-1.33s-0.6-1.33-1.33-1.33H2.67v-3.9C2.67,25.58,3.42,24.53,4.55,24.15z M42.93,38.85H21.07v-5.51h21.87V38.85
	z M21.07,41.51h21.87v5.51H21.07V41.51z M12.27,61.33H4.71V49.69h0.71h6.84V61.33z M14.93,55.2v-5.51h4.8h24.53h4.8v5.51H14.93z
	 M59.29,49.69v11.64h-7.56V49.69h6.85H59.29z"/>
</svg>
