<?xml version="1.0" encoding="utf-8"?>
<!-- Generator: Adobe Illustrator 24.0.2, SVG Export Plug-In . SVG Version: 6.00 Build 0)  -->
<svg version="1.1" id="Слой_1" xmlns="http://www.w3.org/2000/svg" xmlns:xlink="http://www.w3.org/1999/xlink" x="0px" y="0px"
	 viewBox="0 0 64 64" style="enable-background:new 0 0 64 64;" xml:space="preserve">
<style type="text/css">
	.st0{fill:#FFFFFF;}
</style>
<path class="st0" d="M60.49,21.84l-2.88-0.96L52.44,3.66C51.79,1.47,49.81,0,47.52,0H16.48c-2.28,0-4.26,1.47-4.92,3.66L6.39,20.88
	l-2.88,0.96C1.41,22.54,0,24.5,0,26.71V44.4c0,1.68,0.82,3.16,2.07,4.1c0,0.01-0.01,0.02-0.01,0.04V62c0,1.1,0.9,2,2,2h8.33
	c1.1,0,2-0.9,2-2v-4.2h35.2V62c0,1.1,0.9,2,2,2h8.33c1.1,0,2-0.9,2-2V48.53c0-0.01-0.01-0.02-0.01-0.04
	c1.25-0.94,2.07-2.42,2.07-4.1V26.71C64,24.5,62.59,22.54,60.49,21.84z M13.47,4.23c0.4-1.34,1.61-2.23,3-2.23h31.05
	c1.39,0,2.6,0.9,3,2.23l4.93,16.43H8.54L13.47,4.23z M12.4,62H4.07V49.53h1.07h7.27V62z M14.4,55.8v-6.27h5.2h24.8h5.2v6.27H14.4z
	 M43.4,39.27H20.6V33h22.8V39.27z M20.6,41.27h22.8v6.27H20.6V41.27z M59.93,49.53V62H51.6V49.53h7.27H59.93z M58.87,47.53H50.6
	h-5.2V32c0-0.55-0.45-1-1-1H19.6c-0.55,0-1,0.45-1,1v15.53h-5.2H5.13C3.41,47.53,2,46.13,2,44.4V33h9.33c0.55,0,1-0.45,1-1
	s-0.45-1-1-1H2v-4.29c0-1.35,0.86-2.55,2.14-2.97l3.22-1.07h49.28l3.22,1.07c1.28,0.43,2.14,1.62,2.14,2.97V31h-9.33
	c-0.55,0-1,0.45-1,1s0.45,1,1,1H62v11.4C62,46.13,60.59,47.53,58.87,47.53z"/>
</svg>
