<?xml version="1.0" encoding="utf-8"?>
<!-- Generator: Adobe Illustrator 24.0.2, SVG Export Plug-In . SVG Version: 6.00 Build 0)  -->
<svg version="1.1" id="Слой_1" xmlns="http://www.w3.org/2000/svg" xmlns:xlink="http://www.w3.org/1999/xlink" x="0px" y="0px"
	 viewBox="0 0 64 64" style="enable-background:new 0 0 64 64;" xml:space="preserve">
<style type="text/css">
	.st0{fill:#FFFFFF;}
</style>
<g>
	<path class="st0" d="M61,16.53H47.16l-4.95-13.2C41.46,1.34,39.53,0,37.4,0H26.6c-2.13,0-4.06,1.34-4.81,3.33l-3.26,8.69v-0.75
		c0-1.65-1.35-3-3-3h-8.4c-1.65,0-3,1.35-3,3v5.27H3c-1.65,0-3,1.35-3,3V61c0,1.65,1.35,3,3,3h58c1.65,0,3-1.35,3-3V19.53
		C64,17.88,62.65,16.53,61,16.53z M23.66,4.03C24.12,2.82,25.3,2,26.6,2h10.8c1.3,0,2.48,0.82,2.93,2.03l4.69,12.5H18.98L23.66,4.03
		z M6.13,11.27c0-0.55,0.45-1,1-1h8.4c0.55,0,1,0.45,1,1v5.27H6.13V11.27z M62,61c0,0.55-0.45,1-1,1H3c-0.55,0-1-0.45-1-1V19.53
		c0-0.55,0.45-1,1-1h2.13h12.4h28.93H61c0.55,0,1,0.45,1,1V61z"/>
	<path class="st0" d="M52.67,35.13h-6.09C44.45,29.12,38.73,24.8,32,24.8c-8.53,0-15.47,6.94-15.47,15.47S23.47,55.73,32,55.73
		c6.73,0,12.45-4.32,14.57-10.33h6.09c1.69,0,3.07-1.38,3.07-3.07V38.2C55.73,36.51,54.36,35.13,52.67,35.13z M32,53.73
		c-7.43,0-13.47-6.04-13.47-13.47S24.57,26.8,32,26.8s13.47,6.04,13.47,13.47S39.43,53.73,32,53.73z M53.73,42.33
		c0,0.59-0.48,1.07-1.07,1.07h-5.52c0.21-1.01,0.32-2.06,0.32-3.13c0-1.07-0.11-2.12-0.32-3.13h5.52c0.59,0,1.07,0.48,1.07,1.07
		V42.33z"/>
	<path class="st0" d="M32,33.07c-3.97,0-7.2,3.23-7.2,7.2s3.23,7.2,7.2,7.2c3.97,0,7.2-3.23,7.2-7.2S35.97,33.07,32,33.07z
		 M32,45.47c-2.87,0-5.2-2.33-5.2-5.2s2.33-5.2,5.2-5.2s5.2,2.33,5.2,5.2S34.87,45.47,32,45.47z"/>
	<path class="st0" d="M34.07,8.27h-4.13c-0.55,0-1,0.45-1,1s0.45,1,1,1h4.13c0.55,0,1-0.45,1-1S34.62,8.27,34.07,8.27z"/>
</g>
</svg>
