<?xml version="1.0" encoding="utf-8"?>
<!-- Generator: Adobe Illustrator 24.0.2, SVG Export Plug-In . SVG Version: 6.00 Build 0)  -->
<svg version="1.1" id="Слой_1" xmlns="http://www.w3.org/2000/svg" xmlns:xlink="http://www.w3.org/1999/xlink" x="0px" y="0px"
	 viewBox="0 0 64 64" style="enable-background:new 0 0 64 64;" xml:space="preserve">
<style type="text/css">
	.st0{fill:#FFFFFF;}
</style>
<g>
	<path class="st0" d="M60,16.36H47.24L42.42,3.52C41.63,1.41,39.59,0,37.34,0H26.66c-2.25,0-4.29,1.41-5.08,3.52l-2.78,7.41
		c-0.53-1.59-2.01-2.75-3.78-2.75H8.09c-2.21,0-4,1.79-4,4v4.18H4c-2.21,0-4,1.79-4,4V60c0,2.21,1.79,4,4,4h56c2.21,0,4-1.79,4-4
		V20.36C64,18.15,62.21,16.36,60,16.36z M24.08,4.45c0.4-1.07,1.44-1.79,2.58-1.79h10.69c1.14,0,2.18,0.72,2.58,1.79l4.46,11.9
		H19.61L24.08,4.45z M6.76,12.18c0-0.74,0.6-1.33,1.33-1.33h6.93c0.74,0,1.33,0.6,1.33,1.33v4.18h-9.6V12.18z M61.33,60
		c0,0.74-0.6,1.33-1.33,1.33H4c-0.74,0-1.33-0.6-1.33-1.33V20.36c0-0.74,0.6-1.33,1.33-1.33h1.42h12.27h28.62H60
		c0.74,0,1.33,0.6,1.33,1.33V60z"/>
	<path class="st0" d="M52.44,34.76h-5.79C44.44,28.8,38.72,24.53,32,24.53c-8.63,0-15.64,7.02-15.64,15.65
		c0,8.63,7.02,15.64,15.64,15.64c6.72,0,12.44-4.26,14.66-10.22h5.79c1.86,0,3.38-1.52,3.38-3.38v-4.09
		C55.82,36.27,54.31,34.76,52.44,34.76z M32,53.15c-7.16,0-12.98-5.82-12.98-12.98c0-7.16,5.82-12.98,12.98-12.98
		s12.98,5.82,12.98,12.98C44.98,47.33,39.16,53.15,32,53.15z M53.15,42.22c0,0.39-0.32,0.71-0.71,0.71h-5.06
		c0.16-0.9,0.26-1.81,0.26-2.76c0-0.94-0.1-1.86-0.26-2.76h5.06c0.39,0,0.71,0.32,0.71,0.71V42.22z"/>
	<path class="st0" d="M32,32.71c-4.12,0-7.47,3.35-7.47,7.47s3.35,7.47,7.47,7.47s7.47-3.35,7.47-7.47S36.12,32.71,32,32.71z
		 M32,44.98c-2.65,0-4.8-2.15-4.8-4.8c0-2.65,2.15-4.8,4.8-4.8c2.65,0,4.8,2.15,4.8,4.8C36.8,42.82,34.65,44.98,32,44.98z"/>
	<path class="st0" d="M34.04,8.18h-4.09c-0.74,0-1.33,0.6-1.33,1.33s0.6,1.33,1.33,1.33h4.09c0.74,0,1.33-0.6,1.33-1.33
		S34.78,8.18,34.04,8.18z"/>
</g>
</svg>
