<?xml version="1.0" encoding="utf-8"?>
<!-- Generator: Adobe Illustrator 24.0.2, SVG Export Plug-In . SVG Version: 6.00 Build 0)  -->
<svg version="1.1" id="Слой_1" xmlns="http://www.w3.org/2000/svg" xmlns:xlink="http://www.w3.org/1999/xlink" x="0px" y="0px"
	 viewBox="0 0 64 64" style="enable-background:new 0 0 64 64;" xml:space="preserve">
<style type="text/css">
	.st0{fill:#FFFFFF;}
</style>
<g>
	<path class="st0" d="M57.33,0H6.67C2.99,0,0,2.99,0,6.67v50.67C0,61.01,2.99,64,6.67,64h50.67c3.68,0,6.67-2.99,6.67-6.67V6.67
		C64,2.99,61.01,0,57.33,0z M61.33,57.33c0,2.21-1.79,4-4,4H6.67c-2.21,0-4-1.79-4-4V6.67c0-2.21,1.79-4,4-4h50.67
		c2.21,0,4,1.79,4,4V57.33z"/>
	<path class="st0" d="M25.87,16.36h-6.84V9.51c0-0.74-0.6-1.33-1.33-1.33s-1.33,0.6-1.33,1.33v6.84H9.51c-0.74,0-1.33,0.6-1.33,1.33
		s0.6,1.33,1.33,1.33h6.84v6.84c0,0.74,0.6,1.33,1.33,1.33s1.33-0.6,1.33-1.33v-6.84h6.84c0.74,0,1.33-0.6,1.33-1.33
		S26.6,16.36,25.87,16.36z"/>
	<path class="st0" d="M54.41,38.21c-0.52-0.52-1.36-0.52-1.89,0l-6.21,6.21l-6.21-6.21c-0.52-0.52-1.36-0.52-1.89,0
		c-0.52,0.52-0.52,1.36,0,1.89l6.21,6.21l-6.21,6.21c-0.52,0.52-0.52,1.36,0,1.89c0.26,0.26,0.6,0.39,0.94,0.39
		c0.34,0,0.68-0.13,0.94-0.39l6.21-6.21l6.21,6.21c0.26,0.26,0.6,0.39,0.94,0.39c0.34,0,0.68-0.13,0.94-0.39
		c0.52-0.52,0.52-1.36,0-1.89l-6.21-6.21l6.21-6.21C54.93,39.58,54.93,38.73,54.41,38.21z"/>
	<path class="st0" d="M46.31,8.18c-5.24,0-9.51,4.27-9.51,9.51s4.27,9.51,9.51,9.51c5.24,0,9.51-4.27,9.51-9.51
		S51.55,8.18,46.31,8.18z M46.31,24.53c-3.77,0-6.85-3.07-6.85-6.84s3.07-6.84,6.85-6.84c3.77,0,6.84,3.07,6.84,6.84
		S50.08,24.53,46.31,24.53z"/>
	<path class="st0" d="M18.63,37.19c-0.5-0.5-1.39-0.5-1.89,0l-8.18,8.18c-0.25,0.25-0.39,0.59-0.39,0.94c0,0.35,0.14,0.69,0.39,0.94
		l8.18,8.18c0.26,0.26,0.6,0.39,0.94,0.39c0.34,0,0.68-0.13,0.94-0.39l8.18-8.18c0.25-0.25,0.39-0.59,0.39-0.94
		c0-0.35-0.14-0.69-0.39-0.94L18.63,37.19z M17.69,52.6l-6.29-6.29l6.29-6.29l6.29,6.29L17.69,52.6z"/>
</g>
</svg>
