<?xml version="1.0" encoding="utf-8"?>
<!-- Generator: Adobe Illustrator 24.0.2, SVG Export Plug-In . SVG Version: 6.00 Build 0)  -->
<svg version="1.1" id="Слой_1" xmlns="http://www.w3.org/2000/svg" xmlns:xlink="http://www.w3.org/1999/xlink" x="0px" y="0px"
	 viewBox="0 0 64 64" style="enable-background:new 0 0 64 64;" xml:space="preserve">
<style type="text/css">
	.st0{fill:#FFFFFF;}
</style>
<g>
	<path class="st0" d="M59,0H5C2.24,0,0,2.24,0,5v54c0,2.76,2.24,5,5,5h54c2.76,0,5-2.24,5-5V5C64,2.24,61.76,0,59,0z M62,59
		c0,1.65-1.35,3-3,3H5c-1.65,0-3-1.35-3-3V5c0-1.65,1.35-3,3-3h54c1.65,0,3,1.35,3,3V59z"/>
	<path class="st0" d="M25.8,16.53h-7.27V9.27c0-0.55-0.45-1-1-1s-1,0.45-1,1v7.27H9.27c-0.55,0-1,0.45-1,1s0.45,1,1,1h7.27v7.27
		c0,0.55,0.45,1,1,1s1-0.45,1-1v-7.27h7.27c0.55,0,1-0.45,1-1S26.35,16.53,25.8,16.53z"/>
	<path class="st0" d="M54.41,38.53c-0.39-0.39-1.02-0.39-1.41,0l-6.53,6.53l-6.53-6.53c-0.39-0.39-1.02-0.39-1.41,0
		s-0.39,1.02,0,1.41l6.53,6.53l-6.53,6.53c-0.39,0.39-0.39,1.02,0,1.41c0.2,0.2,0.45,0.29,0.71,0.29s0.51-0.1,0.71-0.29l6.53-6.53
		l6.53,6.53c0.2,0.2,0.45,0.29,0.71,0.29s0.51-0.1,0.71-0.29c0.39-0.39,0.39-1.02,0-1.41l-6.53-6.53l6.53-6.53
		C54.8,39.55,54.8,38.92,54.41,38.53z"/>
	<path class="st0" d="M46.47,8.27c-5.11,0-9.27,4.16-9.27,9.27s4.16,9.27,9.27,9.27s9.27-4.16,9.27-9.27S51.58,8.27,46.47,8.27z
		 M46.47,24.8c-4.01,0-7.27-3.26-7.27-7.27s3.26-7.27,7.27-7.27s7.27,3.26,7.27,7.27S50.47,24.8,46.47,24.8z"/>
	<path class="st0" d="M18.24,37.49c-0.39-0.39-1.02-0.39-1.41,0l-8.27,8.27c-0.39,0.39-0.39,1.02,0,1.41l8.27,8.27
		c0.2,0.2,0.45,0.29,0.71,0.29s0.51-0.1,0.71-0.29l8.27-8.27c0.39-0.39,0.39-1.02,0-1.41L18.24,37.49z M17.53,53.32l-6.85-6.85
		l6.85-6.85l6.85,6.85L17.53,53.32z"/>
</g>
</svg>
