<?xml version="1.0" encoding="utf-8"?>
<!-- Generator: Adobe Illustrator 24.0.2, SVG Export Plug-In . SVG Version: 6.00 Build 0)  -->
<svg version="1.1" id="Слой_1" xmlns="http://www.w3.org/2000/svg" xmlns:xlink="http://www.w3.org/1999/xlink" x="0px" y="0px"
	 viewBox="0 0 64 64" style="enable-background:new 0 0 64 64;" xml:space="preserve">
<style type="text/css">
	.st0{fill:#FFFFFF;}
</style>
<path class="st0" d="M63.41,4.57c-0.52-0.35-13.03-8.46-31.83-2.2C14.08,8.2,2.2,0.33,2.09,0.25C2.05,0.23,2.01,0.22,1.97,0.2
	C1.89,0.16,1.81,0.12,1.72,0.1C1.63,0.07,1.55,0.05,1.46,0.04c-0.04,0-0.08-0.03-0.13-0.03c-0.04,0-0.08,0.02-0.12,0.02
	C1.12,0.05,1.04,0.07,0.95,0.09C0.87,0.12,0.79,0.15,0.72,0.19c-0.07,0.04-0.14,0.08-0.2,0.14c-0.07,0.06-0.14,0.12-0.2,0.19
	C0.29,0.54,0.26,0.56,0.23,0.6C0.21,0.63,0.2,0.68,0.18,0.71c-0.04,0.08-0.08,0.16-0.1,0.25C0.05,1.05,0.03,1.13,0.03,1.22
	C0.02,1.27,0,1.31,0,1.35v61.32C0,63.4,0.6,64,1.33,64s1.33-0.6,1.33-1.33V39.13c2.83,1.42,8.38,3.58,15.95,3.58
	c4.06,0,8.7-0.62,13.8-2.32c17.51-5.83,29.39,1.81,29.51,1.89c0.41,0.27,0.94,0.3,1.37,0.07c0.43-0.23,0.7-0.68,0.7-1.18V5.67
	C64,5.23,63.78,4.81,63.41,4.57z M2.67,15.47c2.83,1.42,8.38,3.58,15.95,3.58c4.06,0,8.7-0.62,13.8-2.32
	c15.3-5.1,26.3,0.1,28.91,1.54v8.82c-4.34-2.11-15.14-5.92-29.76-1.05c-15.32,5.1-26.33-0.29-28.91-1.76V15.47z M32.42,4.9
	c15.3-5.1,26.3,0.1,28.91,1.54v8.82C57,13.15,46.19,9.33,31.58,14.2c-15.32,5.1-26.33-0.29-28.91-1.76v-8.8
	C7.01,5.81,17.81,9.76,32.42,4.9z M31.58,37.86c-15.32,5.1-26.33-0.29-28.91-1.77v-8.8c2.83,1.42,8.38,3.58,15.95,3.58
	c4.06,0,8.7-0.62,13.8-2.32c15.3-5.1,26.3,0.1,28.91,1.54v8.82C57,36.81,46.19,32.99,31.58,37.86z"/>
</svg>
