<?xml version="1.0" encoding="utf-8"?>
<!-- Generator: Adobe Illustrator 24.0.2, SVG Export Plug-In . SVG Version: 6.00 Build 0)  -->
<svg version="1.1" id="Слой_1" xmlns="http://www.w3.org/2000/svg" xmlns:xlink="http://www.w3.org/1999/xlink" x="0px" y="0px"
	 viewBox="0 0 64 64" style="enable-background:new 0 0 64 64;" xml:space="preserve">
<style type="text/css">
	.st0{fill:#FFFFFF;}
</style>
<path class="st0" d="M63.55,4.55C63.03,4.2,50.53-3.91,31.68,2.37c-17.87,5.96-30-2.1-30.12-2.18C1.54,0.17,1.5,0.16,1.48,0.15
	C1.42,0.11,1.36,0.09,1.29,0.07C1.23,0.05,1.16,0.04,1.1,0.03c-0.03,0-0.06-0.02-0.1-0.02c-0.03,0-0.06,0.02-0.09,0.02
	C0.84,0.03,0.78,0.05,0.72,0.07C0.65,0.09,0.59,0.11,0.54,0.14c-0.05,0.03-0.1,0.06-0.15,0.1C0.33,0.28,0.28,0.33,0.24,0.39
	C0.22,0.41,0.19,0.42,0.18,0.45C0.16,0.47,0.15,0.5,0.14,0.53C0.11,0.59,0.08,0.65,0.06,0.72C0.04,0.79,0.03,0.85,0.02,0.91
	C0.02,0.95,0,0.98,0,1.01v62c0,0.55,0.45,1,1,1s1-0.45,1-1V38.65c2.62,1.39,8.4,3.85,16.47,3.85c4.07,0,8.73-0.63,13.85-2.33
	c17.88-5.96,30.01,1.87,30.13,1.95c0.31,0.2,0.7,0.22,1.03,0.05C63.8,41.98,64,41.64,64,41.28V5.38C64,5.05,63.83,4.74,63.55,4.55z
	 M62,39.56c-3.94-2.03-15.05-6.39-30.32-1.3C15.69,43.59,4.3,37.7,2,36.35v-9.66c2.62,1.39,8.4,3.85,16.47,3.85
	c4.07,0,8.73-0.63,13.85-2.33c15.98-5.32,27.36,0.36,29.68,1.68V39.56z M62,27.59c-3.94-2.02-15.04-6.39-30.32-1.3
	C15.69,31.63,4.3,25.74,2,24.38v-9.66c2.62,1.39,8.4,3.85,16.47,3.85c4.07,0,8.73-0.63,13.85-2.33C48.29,10.9,59.67,16.59,62,17.91
	V27.59z M62,15.63c-3.94-2.02-15.04-6.39-30.32-1.3C15.69,19.66,4.3,13.77,2,12.42V2.75c3.95,2.09,15.05,6.6,30.32,1.51
	C48.27-1.05,59.65,4.61,62,5.95V15.63z"/>
</svg>
